<?xml version="1.0" encoding="utf-8"?>
<svg viewBox="0 0 500 500" fill="none" xmlns="http://www.w3.org/2000/svg">
  <defs>
    <style type="text/css">
	.st0{fill:#1354A4;}
	.st1{fill:#F4F7FA;}
</style>
  </defs>
  <g transform="matrix(16.871178, 0, 0, 16.871178, -1786.248901, -1148.366699)" style="">
    <rect x="107.1" y="69.3" class="st0" width="27.3" height="27.3"/>
    <path class="st0" d="M107.6,94.8c0-0.5,0-1,0-1.5c0.6-7,0.6-14,0-21c0-1,0-2,0-3c0.8,0,1.5,0,2.3,0c7.3,0.6,14.6,0.6,21.9,0 c0.5,0,1,0,1.5,0c1.4,0.8,1.1,2.1,1.1,3.3c0,6.6,0,13.1,0,19.7c0,1.5,0.2,3.1-1.8,3.6c-7.6,0.1-15.1,0-22.7,0 C108.9,96,108.1,95.7,107.6,94.8z"/>
    <path class="st0" d="M131.8,69.3c-0.5,0.2-1.1,0.7-1.6,0.7c-6.2,0.1-12.5,0.1-18.7,0c-0.5,0-1.1-0.5-1.6-0.7 C117.2,69.3,124.5,69.3,131.8,69.3z"/>
    <path class="st0" d="M107.6,72.3c0.2,0.5,0.7,1.1,0.7,1.6c0.1,5.9,0.1,11.9,0,17.8c0,0.5-0.5,1.1-0.7,1.6 C107.6,86.3,107.6,79.3,107.6,72.3z"/>
    <path class="st0" d="M109.1,95.6c0,0.2,0,0.5,0,0.7c-0.5,0-1,0-1.5,0c0-0.5,0-1,0-1.5C108.1,95.1,108.6,95.3,109.1,95.6z"/>
    <path class="st1" d="M126.6,72.7c0.8,1.4,1.6,2.8,2.8,4.7c-3.2,0-5.9,0.1-8.5,0.1c-2.6,0-5.2,0-8.5,0c1.1-1.9,1.9-3.4,2.8-4.9 C119,72.7,122.7,72.7,126.6,72.7z"/>
    <path class="st1" d="M120.8,92.4c-2.1,0-3.8,0-5.7,0c-1.9-3.2-3.8-6.5-5.8-9.9c1-1.6,1.8-3.1,2.9-4.9 C115.2,82.7,117.8,87.2,120.8,92.4z"/>
    <path class="st1" d="M129.4,77.7c1.1,1.8,1.9,3.2,2.9,4.8c-1.9,3.2-3.8,6.5-5.7,9.9c-1.9,0-3.6,0-5.7,0 C123.7,87.5,126.4,82.8,129.4,77.7z"/>
  </g>
</svg>